<mxfile host="65bd71144e">
    <diagram id="R_lXnI2_M7Czsge96zSu" name="Page-1">
        <mxGraphModel dx="892" dy="1093" grid="1" gridSize="10" guides="1" tooltips="1" connect="1" arrows="1" fold="1" page="1" pageScale="1" pageWidth="827" pageHeight="1169" math="0" shadow="0">
            <root>
                <mxCell id="0"/>
                <mxCell id="1" parent="0"/>
                <mxCell id="11" style="edgeStyle=orthogonalEdgeStyle;html=1;exitX=0.5;exitY=1;exitDx=0;exitDy=0;entryX=0.5;entryY=0;entryDx=0;entryDy=0;" edge="1" parent="1" source="2" target="3">
                    <mxGeometry relative="1" as="geometry"/>
                </mxCell>
                <mxCell id="12" style="edgeStyle=orthogonalEdgeStyle;html=1;exitX=0.5;exitY=1;exitDx=0;exitDy=0;entryX=0.5;entryY=0;entryDx=0;entryDy=0;" edge="1" parent="1" source="2" target="5">
                    <mxGeometry relative="1" as="geometry"/>
                </mxCell>
                <mxCell id="13" style="edgeStyle=orthogonalEdgeStyle;html=1;exitX=0.5;exitY=1;exitDx=0;exitDy=0;entryX=0.5;entryY=0;entryDx=0;entryDy=0;" edge="1" parent="1" source="2" target="6">
                    <mxGeometry relative="1" as="geometry"/>
                </mxCell>
                <mxCell id="17" style="edgeStyle=orthogonalEdgeStyle;html=1;exitX=0.5;exitY=1;exitDx=0;exitDy=0;entryX=0.5;entryY=0;entryDx=0;entryDy=0;" edge="1" parent="1" source="2" target="4">
                    <mxGeometry relative="1" as="geometry"/>
                </mxCell>
                <object label="core" hedietLinkedDataV1_path="../../src/core.js" hedietLinkedDataV1_start_col_x-num="0" hedietLinkedDataV1_start_line_x-num="165" hedietLinkedDataV1_end_col_x-num="3" hedietLinkedDataV1_end_line_x-num="228" id="2">
                    <mxCell style="whiteSpace=wrap;html=1;direction=east;" vertex="1" parent="1">
                        <mxGeometry x="440" y="40" width="120" height="60" as="geometry"/>
                    </mxCell>
                </object>
                <mxCell id="3" value="uitls" style="whiteSpace=wrap;html=1;" vertex="1" parent="1">
                    <mxGeometry x="360" y="160" width="120" height="60" as="geometry"/>
                </mxCell>
                <mxCell id="14" style="edgeStyle=orthogonalEdgeStyle;html=1;exitX=0.5;exitY=1;exitDx=0;exitDy=0;entryX=0.5;entryY=0;entryDx=0;entryDy=0;" edge="1" parent="1" source="4" target="7">
                    <mxGeometry relative="1" as="geometry"/>
                </mxCell>
                <mxCell id="15" style="edgeStyle=orthogonalEdgeStyle;html=1;exitX=0.5;exitY=1;exitDx=0;exitDy=0;entryX=0.5;entryY=0;entryDx=0;entryDy=0;" edge="1" parent="1" source="4" target="8">
                    <mxGeometry relative="1" as="geometry"/>
                </mxCell>
                <mxCell id="16" style="edgeStyle=orthogonalEdgeStyle;html=1;exitX=0.5;exitY=1;exitDx=0;exitDy=0;entryX=0.5;entryY=0;entryDx=0;entryDy=0;" edge="1" parent="1" source="4" target="9">
                    <mxGeometry relative="1" as="geometry"/>
                </mxCell>
                <mxCell id="4" value="main" style="whiteSpace=wrap;html=1;" vertex="1" parent="1">
                    <mxGeometry x="200" y="160" width="120" height="60" as="geometry"/>
                </mxCell>
                <mxCell id="5" value="tools" style="whiteSpace=wrap;html=1;" vertex="1" parent="1">
                    <mxGeometry x="520" y="160" width="120" height="60" as="geometry"/>
                </mxCell>
                <mxCell id="6" value="widgets" style="whiteSpace=wrap;html=1;" vertex="1" parent="1">
                    <mxGeometry x="680" y="160" width="120" height="60" as="geometry"/>
                </mxCell>
                <mxCell id="20" style="edgeStyle=orthogonalEdgeStyle;html=1;exitX=0.5;exitY=1;exitDx=0;exitDy=0;entryX=0.5;entryY=0;entryDx=0;entryDy=0;" edge="1" parent="1" source="7" target="18">
                    <mxGeometry relative="1" as="geometry"/>
                </mxCell>
                <mxCell id="7" value="onChart" style="whiteSpace=wrap;html=1;" vertex="1" parent="1">
                    <mxGeometry x="40" y="280" width="120" height="60" as="geometry"/>
                </mxCell>
                <mxCell id="21" style="edgeStyle=orthogonalEdgeStyle;html=1;exitX=0.5;exitY=1;exitDx=0;exitDy=0;" edge="1" parent="1" source="8">
                    <mxGeometry relative="1" as="geometry">
                        <mxPoint x="180" y="410" as="targetPoint"/>
                    </mxGeometry>
                </mxCell>
                <mxCell id="8" value="offChart" style="whiteSpace=wrap;html=1;" vertex="1" parent="1">
                    <mxGeometry x="200" y="280" width="120" height="60" as="geometry"/>
                </mxCell>
                <mxCell id="9" value="time" style="whiteSpace=wrap;html=1;" vertex="1" parent="1">
                    <mxGeometry x="360" y="280" width="120" height="60" as="geometry"/>
                </mxCell>
                <mxCell id="18" value="scale" style="whiteSpace=wrap;html=1;" vertex="1" parent="1">
                    <mxGeometry x="120" y="400" width="120" height="60" as="geometry"/>
                </mxCell>
            </root>
        </mxGraphModel>
    </diagram>
</mxfile>